<svg width="45" height="45" viewBox="0 0 45 45" fill="none" xmlns="http://www.w3.org/2000/svg">
<path d="M22.5 0C10.0852 0 0 10.0852 0 22.5C0 34.9148 10.0852 45 22.5 45C34.9148 45 45 34.9148 45 22.5C45 10.0852 34.9148 0 22.5 0ZM22.5 1.95652C33.8574 1.95652 43.0435 11.1426 43.0435 22.5C43.0435 33.8574 33.8574 43.0435 22.5 43.0435C11.1426 43.0435 1.95652 33.8574 1.95652 22.5C1.95652 11.1426 11.1426 1.95652 22.5 1.95652ZM31.3903 11.7735C30.7212 11.7735 29.9693 11.9285 29.0899 12.2455C27.7242 12.7375 11.6616 19.5575 9.8342 20.3333C8.78941 20.7774 6.844 21.6036 6.844 23.5738C6.844 24.8798 7.60926 25.8139 9.11579 26.3519C9.92579 26.6405 11.8496 27.2236 12.9658 27.5308C13.4393 27.6609 13.9424 27.7276 14.4599 27.7276C15.4724 27.7276 16.4914 27.4753 17.2896 27.0302C17.2828 27.1945 17.2872 27.3607 17.3068 27.527C17.4271 28.5541 18.0605 29.5202 18.9997 30.1121C19.614 30.4995 24.6319 33.8617 25.3813 34.3958C26.4339 35.1481 27.5975 35.546 28.7441 35.546C30.9354 35.546 31.6705 33.2835 32.0247 32.1966C32.5383 30.6187 34.4614 17.7869 34.6786 15.5242C34.8263 13.9736 34.1801 12.6968 32.9494 12.1079C32.4887 11.8858 31.9626 11.7735 31.3903 11.7735ZM31.3903 13.73C31.6593 13.73 31.8995 13.7745 32.103 13.8733C32.5657 14.0954 32.8011 14.5905 32.7297 15.3388C32.493 17.807 30.5745 30.3349 30.1656 31.5909C29.8154 32.6651 29.4464 33.5895 28.7441 33.5895C28.0417 33.5895 27.2743 33.3433 26.5181 32.8023C25.7619 32.2623 20.7404 28.8948 20.0429 28.4555C19.4315 28.0701 18.7844 27.1093 19.6951 26.1799C20.4455 25.4149 26.137 19.8909 26.6232 19.4047C26.9852 19.0418 26.8159 18.6042 26.4608 18.6042C26.3385 18.6042 26.1921 18.6557 26.0405 18.7799C25.4457 19.2661 17.1536 24.8148 16.4355 25.2609C15.9601 25.5563 15.2239 25.7691 14.4599 25.7691C14.1342 25.7691 13.8043 25.7301 13.4874 25.643C12.3839 25.3388 10.5165 24.7722 9.77497 24.5081C9.06182 24.2538 8.80244 24.0101 8.80244 23.5738C8.80244 22.9536 9.67787 22.5254 10.6004 22.1332C11.5747 21.7193 28.4342 14.5599 29.7529 14.0854C30.3633 13.8643 30.9217 13.73 31.3903 13.73Z" fill="#EC925F"/>
</svg>
