<svg width="45" height="45" viewBox="0 0 45 45" fill="none" xmlns="http://www.w3.org/2000/svg">
<path d="M5.35714 0C2.41123 0 0 2.41123 0 5.35714V39.6429C0 42.5888 2.41123 45 5.35714 45H39.6429C42.5888 45 45 42.5888 45 39.6429V5.35714C45 2.41123 42.5888 0 39.6429 0H5.35714ZM5.35714 2.14286H39.6429C41.4305 2.14286 42.8571 3.56948 42.8571 5.35714V39.6429C42.8571 41.4305 41.4305 42.8571 39.6429 42.8571H5.35714C3.56948 42.8571 2.14286 41.4305 2.14286 39.6429V5.35714C2.14286 3.56948 3.56948 2.14286 5.35714 2.14286ZM20.7819 12.8488C19.6489 12.8462 18.6386 12.9095 17.7351 13.3531L17.733 13.3552C17.2925 13.5722 16.982 13.8479 16.7348 14.1755C16.6112 14.3393 16.4846 14.4864 16.4167 14.8598C16.3828 15.0465 16.3637 15.3491 16.559 15.6759C16.7543 16.0028 17.1469 16.1886 17.3982 16.2221C17.5727 16.2453 17.9666 16.413 18.0029 16.4628L18.005 16.4669C18.005 16.4669 18.1578 16.8655 18.2017 17.2203C18.2457 17.5751 18.2436 17.8627 18.2436 17.8627C18.2431 17.8913 18.2438 17.92 18.2457 17.9485C18.2457 17.9485 18.3077 18.878 18.2666 19.8382C18.2502 20.2208 18.2007 20.5613 18.1494 20.8657C17.7679 20.4444 17.2057 19.6816 16.3937 18.275C15.493 16.7137 14.7761 15.3139 14.7761 15.3139C14.7384 15.1919 14.6053 14.8125 14.0855 14.4308C13.5173 14.012 12.9681 13.9495 12.9681 13.9495C12.8992 13.9357 12.8291 13.9287 12.7588 13.9286L8.53585 13.9307C8.53585 13.9307 8.28266 13.916 7.97921 13.9579C7.67577 13.9997 7.21884 14.0338 6.77804 14.5564L6.77595 14.5585C6.382 15.0292 6.40583 15.5494 6.45368 15.8433C6.50153 16.1372 6.60854 16.3602 6.60854 16.3602C6.6106 16.3644 6.6127 16.3686 6.61482 16.3728C6.61482 16.3728 10.069 23.6352 13.9725 27.9116C16.8072 31.0166 19.7167 31.0693 22.117 31.0693H23.9083C24.3657 31.0693 24.7793 31.0515 25.2372 30.7847C25.695 30.518 26.0031 29.8687 26.0031 29.4182C26.0031 28.9463 26.0735 28.5752 26.16 28.3845C26.2208 28.2503 26.269 28.202 26.3442 28.1627C26.3601 28.1728 26.3498 28.1669 26.3944 28.1982C26.5728 28.3237 26.8673 28.6096 27.1875 28.9662C27.828 29.6795 28.5549 30.6579 29.5312 31.3288C30.2307 31.8099 30.8914 32.0235 31.3937 32.101C31.7084 32.1496 31.9528 32.1402 32.1261 32.1261L36.1272 32.1429C36.151 32.1429 36.1747 32.1423 36.1984 32.1408C36.1984 32.1408 36.8878 32.1488 37.6046 31.7201C37.963 31.5058 38.3858 31.0994 38.5233 30.5064C38.6608 29.9134 38.488 29.299 38.1508 28.7381V28.736C38.2094 28.8331 38.0978 28.6337 37.9834 28.4473C37.869 28.2609 37.7029 28.0097 37.4644 27.6981C36.9875 27.0749 36.2236 26.2028 34.9888 25.053H34.9867C34.3596 24.4695 33.9361 24.0564 33.7626 23.8267C33.589 23.597 33.6459 23.7177 33.6579 23.6593C33.682 23.5426 34.4346 22.4568 35.9661 20.4116C36.8971 19.1667 37.5504 18.232 37.9813 17.4547C38.4122 16.6773 38.7229 16.004 38.5066 15.18L38.5045 15.1758C38.4084 14.814 38.1461 14.4806 37.8767 14.299C37.6073 14.1173 37.3519 14.0463 37.1233 14.0018C36.6663 13.9129 36.2674 13.9286 35.897 13.9286C35.1205 13.9286 31.6752 13.9558 31.3916 13.9558C31.0565 13.9558 30.5025 14.1082 30.2574 14.255C29.6412 14.6258 29.4643 15.113 29.4643 15.113C29.4531 15.1336 29.4427 15.1545 29.4329 15.1758C29.4329 15.1758 28.7222 16.7518 27.8069 18.3085C26.8797 19.8874 26.1948 20.6405 25.7812 20.9891C25.7699 20.9271 25.7718 20.9775 25.7645 20.8908C25.7274 20.4498 25.7687 19.8405 25.7687 19.246C25.7687 17.6447 25.9044 16.524 25.8315 15.5336C25.795 15.0384 25.7033 14.5278 25.3774 14.0583C25.0515 13.5888 24.5092 13.2838 23.9732 13.1543C23.6516 13.0767 23.285 12.875 21.958 12.8613H21.9559C21.5501 12.8573 21.1596 12.8496 20.7819 12.8488ZM21.935 15.0042C23.1092 15.0162 22.8167 15.0809 23.4689 15.2386C23.6711 15.2874 23.6221 15.2872 23.6175 15.2804C23.6128 15.2737 23.6722 15.3841 23.6949 15.6927C23.7403 16.3097 23.6258 17.5365 23.6258 19.246C23.6258 19.7121 23.5696 20.3773 23.6279 21.0707C23.6862 21.7642 23.8582 22.6541 24.6868 23.1906C25.0796 23.4452 25.5356 23.4612 25.9256 23.3643C26.3157 23.2673 26.6695 23.0653 27.041 22.7679C27.7841 22.1729 28.6129 21.1687 29.6547 19.3945C30.6284 17.7384 31.3367 16.1614 31.3602 16.1091C31.3648 16.1054 31.3695 16.1029 31.3749 16.0986C31.3882 16.0988 31.3744 16.0986 31.3916 16.0986C31.7916 16.0986 35.1736 16.0714 35.897 16.0714C36.0659 16.0714 36.1274 16.0816 36.2612 16.0861C36.2248 16.2074 36.2652 16.13 36.1063 16.4167C35.773 17.018 35.1588 17.9116 34.2501 19.1267C32.757 21.1207 31.8315 21.9021 31.559 23.2261C31.4228 23.8882 31.6781 24.622 32.0529 25.1179C32.4276 25.6138 32.9007 26.0387 33.5282 26.6225C34.6902 27.7045 35.3719 28.4907 35.7631 29.0018C35.9587 29.2574 36.082 29.442 36.1586 29.5668C36.2352 29.6917 36.2163 29.6785 36.3156 29.8431C36.3809 29.9526 36.3568 29.8857 36.3679 29.9184C36.2394 29.9546 36.0838 29.9982 36.0749 30L32.1345 29.9833C32.0635 29.9832 31.9927 29.9902 31.9231 30.0042C31.9231 30.0042 31.933 30.0158 31.7222 29.9833C31.5115 29.9507 31.1762 29.8595 30.745 29.5626C30.2245 29.205 29.4959 28.3299 28.7821 27.5349C28.4252 27.1374 28.0692 26.7556 27.627 26.4446C27.1847 26.1336 26.5229 25.8411 25.8085 26.0658C25.0668 26.2987 24.4895 26.8775 24.2076 27.4993C23.9978 27.9621 23.9808 28.4456 23.9481 28.9265C23.9125 28.9292 23.9535 28.9265 23.9083 28.9265H22.117C19.6831 28.9265 17.9549 29.0948 15.5545 26.4655C12.3258 22.9284 9.36763 17.0432 8.88532 16.0735L12.6018 16.0714C12.6672 16.0965 12.807 16.149 12.8153 16.1551L12.8195 16.1593C12.6836 16.06 12.8258 16.1991 12.8258 16.1991C12.8389 16.2312 12.8535 16.2626 12.8697 16.2932C12.8697 16.2932 13.6061 17.732 14.5375 19.3464C15.4512 20.9291 16.1169 21.9178 16.7599 22.5711C17.0814 22.8978 17.4059 23.1598 17.8397 23.3078C18.2735 23.4557 18.8336 23.4014 19.2104 23.1948C19.9801 22.7734 20.0835 22.1519 20.2086 21.6085C20.3338 21.0644 20.3836 20.4848 20.4074 19.9302C20.4535 18.8539 20.3883 17.9223 20.3843 17.8648C20.3846 17.8446 20.3895 17.4562 20.3278 16.9587C20.2647 16.4493 20.1944 15.8265 19.7335 15.1988L19.7314 15.1967C19.7282 15.1923 19.7242 15.1926 19.721 15.1883C20.3304 15.1009 20.8518 14.9934 21.935 15.0042ZM31.3874 16.0547L31.3728 16.0882C31.3705 16.0895 31.3712 16.0866 31.3686 16.0882C31.3731 16.0795 31.3874 16.0547 31.3874 16.0547Z" fill="#EC925F"/>
</svg>
