<svg width="140" height="140" viewBox="0 0 140 140" fill="none" xmlns="http://www.w3.org/2000/svg">
<path d="M139.283 69.5696C139.283 107.992 108.104 139.139 69.6416 139.139C31.1796 139.139 0 107.992 0 69.5696C0 31.1474 31.1796 0 69.6416 0C108.104 0 139.283 31.1474 139.283 69.5696Z" fill="#EC925F"/>
<path d="M35.5325 78.0956V68.6156H24.4925V78.0956H22.5245V58.6796H24.4925V66.7436H35.5325V58.6796H37.5005V78.0956H35.5325Z" fill="#1F1F1F"/>
<path d="M51.4541 72.5276H42.8861L40.8941 78.0956H38.8301L46.0781 58.6796H48.2861L55.5581 78.0956H53.4461L51.4541 72.5276ZM47.1821 60.5036L43.5581 70.6316H50.7821L47.1821 60.5036Z" fill="#1F1F1F"/>
<path d="M67.2525 68.0636C70.1325 68.4956 70.9005 70.8236 70.9005 72.9836C70.9005 76.0556 68.9565 78.0956 64.4685 78.0956H56.8605V58.6796H64.2045C67.5885 58.6796 69.7245 61.3196 69.7245 64.1516C69.7245 65.3996 69.1245 67.4156 67.2525 68.0636ZM63.6285 60.5996H58.8045V67.2236C60.3645 67.2236 62.4285 67.2236 63.6045 67.2236C66.2925 67.2236 67.7325 66.4076 67.7325 63.9356C67.7325 61.9916 66.3885 60.5996 63.6285 60.5996ZM64.8285 76.1996C67.2765 76.1996 68.9565 75.2636 68.9565 72.8396C68.9565 70.8716 67.4205 69.1196 64.7805 69.1196H58.8045V76.1996H64.8285Z" fill="#1F1F1F"/>
<path d="M75.4685 60.5756V66.7436H84.8045V68.6396L75.4685 68.5916V76.2236H86.5565V78.0956H73.5245V58.6796H86.5565V60.5756H75.4685Z" fill="#1F1F1F"/>
<path d="M96.0215 58.6796C100.15 58.6796 102.382 61.6316 102.382 64.4156C102.382 67.1996 100.198 70.0316 96.0455 70.0316H90.1415V78.0956H88.1495V58.6796H96.0215ZM96.4055 68.0636C98.3015 68.0636 100.438 66.8636 100.438 64.4156C100.438 61.9196 98.2775 60.6476 96.4055 60.6476H90.1415V68.0636H96.4055Z" fill="#1F1F1F"/>
<path d="M111.788 68.5196L118.46 78.0956H116.06L110.588 70.2236L105.14 78.0956H102.74L109.412 68.5196L102.572 58.6796H104.972L110.588 66.7916L116.228 58.6796H118.604L111.788 68.5196Z" fill="#1F1F1F"/>
</svg>
